<svg width="14" height="14" viewBox="0 0 14 14" fill="none" xmlns="http://www.w3.org/2000/svg">
<g id="board 1">
<path id="Vector" d="M11.375 10.5022H2.625C2.39301 10.502 2.17058 10.4097 2.00654 10.2457C1.84249 10.0816 1.75023 9.85919 1.75 9.6272V3.5022C1.75023 3.2702 1.84249 3.04778 2.00654 2.88373C2.17058 2.71969 2.39301 2.62743 2.625 2.6272H11.375C11.607 2.62743 11.8294 2.71969 11.9935 2.88373C12.1575 3.04778 12.2498 3.2702 12.25 3.5022V9.6272C12.2497 9.85915 12.1574 10.0815 11.9933 10.2455C11.8293 10.4096 11.607 10.5019 11.375 10.5022ZM2.625 3.5022V9.6272H11.375V3.5022H2.625ZM0.875 11.3772H13.125V12.2522H0.875V11.3772Z" fill="#BB9E7F"/>
</g>
</svg>
