<svg width="14" height="14" viewBox="0 0 14 14" fill="none" xmlns="http://www.w3.org/2000/svg">
<g id="board 1">
<path id="Vector" d="M5.78025 2.15837C6.14429 1.92504 6.56761 1.80103 7 1.80103C7.43239 1.80103 7.85571 1.92504 8.21975 2.15837L12.9237 5.1742C12.9852 5.21364 13.0358 5.26784 13.0709 5.33184C13.106 5.39584 13.1246 5.46761 13.1249 5.54062C13.1252 5.61362 13.1072 5.68554 13.0726 5.74982C13.0379 5.8141 12.9878 5.86869 12.9267 5.90862L11.0833 7.1132V10.3548C11.0833 10.4494 11.0526 10.5416 10.9958 10.6173L10.9952 10.6179L10.9947 10.619L10.9929 10.6214L10.9877 10.6272C10.9673 10.6541 10.9459 10.6802 10.9235 10.7054C10.8645 10.7722 10.8026 10.8364 10.738 10.8979C10.5764 11.0536 10.3355 11.256 10.0088 11.4567C9.35492 11.8592 8.36442 12.25 7 12.25C5.63558 12.25 4.64567 11.8592 3.99058 11.4567C3.72844 11.297 3.48401 11.1098 3.26142 10.8985C3.19723 10.837 3.13572 10.7727 3.07708 10.706C3.05192 10.6777 3.02779 10.6485 3.00475 10.6185L3.00417 10.6167C2.94737 10.541 2.91667 10.4489 2.91667 10.3542V7.11203L1.75 6.3502V9.4792C1.75 9.59523 1.70391 9.70651 1.62186 9.78856C1.53981 9.87061 1.42853 9.9167 1.3125 9.9167C1.19647 9.9167 1.08519 9.87061 1.00314 9.78856C0.921094 9.70651 0.875 9.59523 0.875 9.4792V5.5417C0.874941 5.4668 0.894111 5.39314 0.930677 5.32777C0.967242 5.2624 1.01998 5.20752 1.08383 5.16837L5.77967 2.15837H5.78025ZM8.23608 8.97287C7.86853 9.21294 7.43901 9.34078 7 9.34078C6.56099 9.34078 6.13147 9.21294 5.76392 8.97287L3.79167 7.68487V10.1909C3.98888 10.3905 4.20964 10.5654 4.44908 10.7118C4.97933 11.0367 5.81233 11.375 7 11.375C8.18767 11.375 9.02067 11.0367 9.55092 10.7106C9.79033 10.5644 10.0111 10.3897 10.2083 10.1903V7.68428L8.23667 8.97228L8.23608 8.97287ZM7.74783 2.89512C7.29225 2.60345 6.70775 2.60345 6.25217 2.89512L2.1175 5.54578L6.24225 8.24078C6.70308 8.5412 7.2975 8.5412 7.75775 8.24078L11.8819 5.54578L7.74783 2.89512Z" fill="#BB9E7F"/>
</g>
</svg>
