<svg width="14" height="14" viewBox="0 0 14 14" fill="none" xmlns="http://www.w3.org/2000/svg">
<g id="board 1">
<path id="Icon (Stroke)" fill-rule="evenodd" clip-rule="evenodd" d="M2.10039 3.84128V10.6344C2.75727 10.3259 3.54078 10.15 4.37539 10.15C5.21001 10.15 5.99351 10.3259 6.65039 10.6344V3.84128C6.04849 3.48761 5.25501 3.26665 4.37539 3.26665C3.49577 3.26665 2.70229 3.48761 2.10039 3.84128ZM7.35039 3.84128V10.6344C8.00727 10.3259 8.79078 10.15 9.62539 10.15C10.46 10.15 11.2435 10.3259 11.9004 10.6344V3.84128C11.2985 3.48761 10.505 3.26665 9.62539 3.26665C8.74577 3.26665 7.95229 3.48761 7.35039 3.84128ZM7.00039 3.23504C6.28074 2.81336 5.36391 2.56665 4.37539 2.56665C3.29585 2.56665 2.30181 2.86089 1.55671 3.35591C1.45907 3.42078 1.40039 3.53022 1.40039 3.64744V11.2308C1.40039 11.3598 1.47133 11.4783 1.585 11.5392C1.69866 11.6002 1.83664 11.5937 1.94407 11.5223C2.56151 11.1121 3.41736 10.85 4.37539 10.85C5.33342 10.85 6.18927 11.1121 6.80671 11.5223C6.92406 11.6003 7.07672 11.6003 7.19407 11.5223C7.81151 11.1121 8.66736 10.85 9.62539 10.85C10.5834 10.85 11.4393 11.1121 12.0567 11.5223C12.1641 11.5937 12.3021 11.6002 12.4158 11.5392C12.5295 11.4783 12.6004 11.3598 12.6004 11.2308V3.64744C12.6004 3.53022 12.5417 3.42078 12.4441 3.35591C11.699 2.86089 10.7049 2.56665 9.62539 2.56665C8.63687 2.56665 7.72005 2.81336 7.00039 3.23504Z" fill="#BB9E7F"/>
</g>
</svg>
