<svg width="14" height="14" viewBox="0 0 14 14" fill="none" xmlns="http://www.w3.org/2000/svg">
<g id="board 1">
<g id="Group">
<path id="Vector" fill-rule="evenodd" clip-rule="evenodd" d="M6.5625 3.80971V2.96123C6.5625 2.72705 6.7585 2.53699 7 2.53699C7.2415 2.53699 7.4375 2.72705 7.4375 2.96123V3.80971H12.6875C12.929 3.80971 13.125 3.99978 13.125 4.23396C13.125 4.46814 12.929 4.6582 12.6875 4.6582H12.25V11.0218H12.6875C12.929 11.0218 13.125 11.2119 13.125 11.4461C13.125 11.6803 12.929 11.8703 12.6875 11.8703H1.3125C1.071 11.8703 0.875 11.6803 0.875 11.4461C0.875 11.2119 1.071 11.0218 1.3125 11.0218H1.75V4.6582H1.3125C1.071 4.6582 0.875 4.46814 0.875 4.23396C0.875 3.99978 1.071 3.80971 1.3125 3.80971H6.5625ZM11.375 4.6582H2.625V11.0218H11.375V4.6582Z" fill="#BB9E7F"/>
</g>
</g>
</svg>
