<svg width="16" height="17" viewBox="0 0 16 17" fill="none" xmlns="http://www.w3.org/2000/svg">
<g id="004-instagram">
<path id="Shape" fill-rule="evenodd" clip-rule="evenodd" d="M5 0.337891H11C13.761 0.337891 16 2.57689 16 5.33789V11.3379C16 14.0989 13.761 16.3379 11 16.3379H5C2.239 16.3379 0 14.0989 0 11.3379V5.33789C0 2.57689 2.239 0.337891 5 0.337891ZM11 14.8379C12.93 14.8379 14.5 13.2679 14.5 11.3379V5.33789C14.5 3.40789 12.93 1.83789 11 1.83789H5C3.07 1.83789 1.5 3.40789 1.5 5.33789V11.3379C1.5 13.2679 3.07 14.8379 5 14.8379H11Z" fill="white"/>
<path id="Shape_2" fill-rule="evenodd" clip-rule="evenodd" d="M4 8.33789C4 6.12889 5.791 4.33789 8 4.33789C10.209 4.33789 12 6.12889 12 8.33789C12 10.5469 10.209 12.3379 8 12.3379C5.791 12.3379 4 10.5469 4 8.33789ZM5.5 8.33789C5.5 9.71589 6.622 10.8379 8 10.8379C9.378 10.8379 10.5 9.71589 10.5 8.33789C10.5 6.95889 9.378 5.83789 8 5.83789C6.622 5.83789 5.5 6.95889 5.5 8.33789Z" fill="white"/>
<circle id="Oval" cx="12.2996" cy="4.03788" r="0.533" fill="white"/>
</g>
</svg>
