<svg width="16" height="17" viewBox="0 0 16 17" fill="none" xmlns="http://www.w3.org/2000/svg">
<g id="Frame" clip-path="url(#clip0_6702_1380)">
<path id="Vector" d="M13.6675 13.9132H11.3351V10.2574C11.3351 9.3857 11.3175 8.26368 10.1185 8.26368C8.90283 8.26368 8.71729 9.21241 8.71729 10.1935V13.9132H6.38397V6.39597H8.62451V7.41997H8.65515C8.96847 6.83008 9.72991 6.20605 10.8677 6.20605C13.2308 6.20605 13.6684 7.76218 13.6684 9.78655V13.9132H13.6675ZM3.74957 5.3676C3.57152 5.36783 3.39516 5.33291 3.23063 5.26485C3.06609 5.19679 2.9166 5.09693 2.79074 4.97098C2.66487 4.84504 2.56511 4.69548 2.49715 4.5309C2.4292 4.36632 2.3944 4.18995 2.39474 4.01189C2.39492 3.74393 2.47455 3.48204 2.62356 3.25934C2.77257 3.03663 2.98428 2.86312 3.23191 2.76073C3.47954 2.65835 3.75197 2.63169 4.01475 2.68414C4.27752 2.73659 4.51885 2.86578 4.7082 3.05538C4.89756 3.24497 5.02644 3.48647 5.07854 3.74931C5.13065 4.01216 5.10364 4.28455 5.00094 4.53205C4.89823 4.77954 4.72445 4.99103 4.50155 5.13975C4.27865 5.28848 4.01666 5.36777 3.7487 5.3676H3.74957ZM4.91886 13.9132H2.57941V6.39597H4.91973V13.9132H4.91886ZM14.8359 0.488281H1.40925C0.765095 0.488281 0.246094 0.995905 0.246094 1.62343V15.107C0.246094 15.7345 0.765971 16.2421 1.40838 16.2421H14.8324C15.4748 16.2421 15.9999 15.7345 15.9999 15.107V1.62343C15.9999 0.995905 15.4748 0.488281 14.8324 0.488281H14.835H14.8359Z" fill="white"/>
</g>
<defs>
<clipPath id="clip0_6702_1380">
<rect width="16" height="16" fill="white" transform="translate(0 0.337891)"/>
</clipPath>
</defs>
</svg>
