<svg width="115" height="29" viewBox="0 0 115 29" fill="none" xmlns="http://www.w3.org/2000/svg">
<g id="Group 11291 1">
<path id="Vector" d="M55.7196 18.2249H56.1314V18.4831H48.4333V18.2556H48.8204C49.1096 18.2433 49.374 18.1142 49.5647 17.899C49.7611 17.7023 49.8534 17.4317 49.8226 17.155L48.8204 7.83959L43.9937 16.1589C43.3604 17.2165 43.0344 18.1695 43.0162 19.0058H42.7578L36.1602 7.91952L35.158 17.1611C35.1272 17.4378 35.2194 17.7207 35.4162 17.9174C35.6007 18.1388 35.8712 18.2679 36.1602 18.2618H36.5414V18.4893H31.1797V18.231H31.5917C32.0467 18.2372 32.4894 18.0835 32.8337 17.7945C33.1903 17.4993 33.4117 17.0751 33.4609 16.6139L35.5884 0.15979H35.8158L43.7722 13.2505L51.4213 0.15979H51.6489L53.8319 16.6139C53.8995 17.0751 54.1331 17.4932 54.4834 17.7945C54.828 18.0835 55.2584 18.2372 55.7071 18.231L55.7196 18.2249Z" fill="#09314F"/>
<path id="Vector_2" d="M61.8838 18.2251C62.3142 18.2251 62.7261 18.059 63.0273 17.7516C63.3347 17.4503 63.5193 17.0383 63.5254 16.6079V2.36122C63.5132 1.9308 63.3347 1.52499 63.0273 1.22985C62.7261 0.928555 62.3142 0.762538 61.8838 0.768689H61.5518V0.510437H69.3543L69.3296 0.768689H69.0223C68.5919 0.768689 68.174 0.928555 67.8662 1.22985C67.5528 1.51884 67.3746 1.9308 67.3807 2.36122V16.6079C67.3746 17.0383 67.5528 17.4565 67.8662 17.7516C68.174 18.059 68.5858 18.2312 69.0223 18.2251H69.3296L69.3543 18.4833H61.5518V18.2251H61.8838Z" fill="#09314F"/>
<path id="Vector_3" d="M89.7765 0.602356H95.2674V0.860604H95.0398C94.6215 0.866751 94.2097 0.995879 93.8594 1.21723C93.4411 1.48163 93.103 1.85671 92.8815 2.29327L86.8003 15.716C86.0135 17.407 85.5952 18.5322 85.5401 19.0794H85.3126L77.5343 2.31786C77.3128 1.87515 76.9747 1.50008 76.5568 1.22953C76.2 0.989732 75.7818 0.860604 75.3513 0.860604H75.1484V0.602356H83.3078V0.860604H83.1049C82.7854 0.836008 82.4781 0.965136 82.2687 1.20494C82.1088 1.3894 82.0104 1.6169 81.9982 1.85671C81.9982 2.06576 82.0351 2.27482 82.1027 2.47158L86.4682 13.0721L90.9877 2.47158C91.0678 2.27482 91.1108 2.05962 91.1168 1.84441C91.0986 1.60461 91.0063 1.38325 90.8463 1.20494C90.6374 0.958986 90.3297 0.829857 90.0102 0.860604H89.7826V0.602356H89.7765Z" fill="#09314F"/>
<path id="Vector_4" d="M114.625 18.2249H114.853V18.4832H106.669V18.2249H106.896C107.216 18.2496 107.523 18.1204 107.732 17.8806C107.892 17.6961 107.99 17.4687 108.003 17.2227C108.003 17.0136 107.96 16.7985 107.874 16.6078L106.619 13.4535H100.612L99.2776 16.614C99.1978 16.8169 99.1549 17.026 99.1488 17.2412C99.167 17.481 99.2654 17.7085 99.4314 17.8806C99.6469 18.1204 99.9603 18.2496 100.28 18.2249H100.483V18.4832H94.9922V18.2249H95.2193C95.6376 18.2188 96.0495 18.0897 96.4001 17.8622C96.8184 17.5978 97.1565 17.2227 97.3776 16.7862L103.305 3.36338C104.111 1.67247 104.535 0.547242 104.59 0H104.818L112.442 16.737C112.664 17.192 112.996 17.5732 113.42 17.8561C113.776 18.0959 114.195 18.2249 114.625 18.2311V18.2249ZM101.049 12.3713H106.183L103.693 6.05653L101.049 12.3713Z" fill="#09314F"/>
<path id="Vector_5" d="M0 2.18677V27.2497L6.4528 14.0382L0 2.18677Z" fill="#09314F"/>
<path id="Vector_6" d="M0.368164 1.16571L14.1708 24.2321V14.5177L0.368164 1.16571Z" fill="#E83831"/>
<path id="Vector_7" d="M0.87207 0L14.1703 12.4798V7.28367L0.87207 0Z" fill="#BB9E7F"/>
<path id="Vector_8" d="M28.2126 2.18677V27.2497L21.7598 14.0382L28.2126 2.18677Z" fill="#09314F"/>
<path id="Vector_9" d="M27.8488 1.16571L14.042 24.2321V14.5177L27.8488 1.16571Z" fill="#E83831"/>
<path id="Vector_10" d="M27.3444 0L14.042 12.4798V7.28367L27.3444 0Z" fill="#BB9E7F"/>
<path id="Vector_11" d="M33.6345 26.4681C33.1568 26.4681 32.7492 26.3617 32.4119 26.1489C32.0746 25.9361 31.8187 25.6383 31.6444 25.2557C31.47 24.8708 31.3828 24.4258 31.3828 23.9209C31.3828 23.416 31.47 22.9723 31.6444 22.5896C31.8187 22.2047 32.0746 21.9058 32.4119 21.693C32.7492 21.4801 33.1568 21.3737 33.6345 21.3737C34.1123 21.3737 34.5198 21.4801 34.8572 21.693C35.1968 21.9058 35.4538 22.2047 35.6282 22.5896C35.8025 22.9723 35.8897 23.416 35.8897 23.9209C35.8897 24.4258 35.8025 24.8708 35.6282 25.2557C35.4538 25.6383 35.1968 25.9361 34.8572 26.1489C34.5198 26.3617 34.1123 26.4681 33.6345 26.4681ZM33.6414 25.9893C34.0149 25.9893 34.3296 25.9032 34.5855 25.7312C34.8436 25.5568 35.0372 25.3145 35.1663 25.0044C35.2953 24.6941 35.3599 24.333 35.3599 23.9209C35.3599 23.5066 35.2942 23.1443 35.1629 22.8341C35.0316 22.5217 34.8357 22.2806 34.5753 22.1107C34.3172 21.9386 34.0014 21.8526 33.6277 21.8526C33.2519 21.8526 32.9349 21.9409 32.6768 22.1175C32.421 22.2919 32.2296 22.5364 32.1028 22.8511C31.976 23.1658 31.9127 23.5326 31.9127 23.9515C31.9127 24.3613 31.9783 24.719 32.1096 25.0247C32.2409 25.3304 32.4357 25.5681 32.6938 25.7379C32.9542 25.9055 33.27 25.9893 33.6414 25.9893ZM38.5397 26.3663V21.4756H40.428C40.5479 21.4756 40.6625 21.4847 40.771 21.5028C41.0201 21.5413 41.2339 21.6296 41.4128 21.7677C41.5938 21.9058 41.7311 22.0813 41.8238 22.2941C41.9166 22.5047 41.9631 22.7379 41.9631 22.9938C41.9631 23.2496 41.9154 23.4828 41.8206 23.6934C41.7275 23.904 41.5918 24.0783 41.4128 24.2164C41.2339 24.3545 41.0201 24.4428 40.771 24.4813C40.6625 24.4995 40.5479 24.5085 40.428 24.5085H39.0389V26.3663H38.5397ZM40.4144 24.033C40.5277 24.033 40.6285 24.0228 40.7168 24.0024C40.8775 23.9685 41.012 23.9017 41.1209 23.8021C41.2318 23.7024 41.3144 23.5824 41.3687 23.4421C41.423 23.2994 41.4501 23.15 41.4501 22.9938C41.4501 22.8375 41.423 22.6892 41.3687 22.5489C41.3144 22.4062 41.2318 22.2851 41.1209 22.1854C41.012 22.0836 40.8775 22.0156 40.7168 21.9817C40.6261 21.9635 40.5252 21.9545 40.4144 21.9545H39.0389V24.033H40.4144ZM47.6654 26.3663H44.6089V21.4756H47.6654V21.9545H45.1082V23.6459H47.258V24.1247H45.1082V25.8874H47.6654V26.3663ZM50.9554 26.3663H50.4525V21.4756H50.9554L53.6486 25.4832V21.4756H54.1511V26.3663H53.6486L50.9554 22.3553V26.3663ZM62.3108 26.4681C61.9395 26.4681 61.6087 26.3912 61.3192 26.2372C61.0317 26.0832 60.8061 25.8648 60.6434 25.5817C60.4826 25.2987 60.402 24.9715 60.402 24.6002V21.479L60.9045 21.4756V24.5357C60.9045 24.8549 60.975 25.1255 61.1151 25.3474C61.2556 25.567 61.4334 25.73 61.6484 25.8364C61.8658 25.9429 62.0865 25.9961 62.3108 25.9961C62.5372 25.9961 62.7579 25.9429 62.9729 25.8364C63.1883 25.7278 63.3657 25.5636 63.5062 25.344C63.6467 25.1243 63.7168 24.8549 63.7168 24.5357V21.4756H64.2193V24.6002C64.2193 24.9692 64.1379 25.2953 63.9751 25.5783C63.8144 25.8613 63.5888 26.0809 63.2993 26.2372C63.0093 26.3912 62.6797 26.4681 62.3108 26.4681ZM67.6438 26.3663H67.1413V21.4756H67.6438L70.3374 25.4832V21.4756H70.8399V26.3663H70.3374L67.6438 22.3553V26.3663ZM74.3283 26.3663H73.8291V21.4756H74.3283V26.3663ZM79.2215 26.3663H78.5595L76.8749 21.4756H77.3945L78.8854 25.7991L80.3865 21.4756H80.906L79.2215 26.3663ZM86.4422 26.3663H83.3854V21.4756H86.4422V21.9545H83.8847V23.6459H86.0345V24.1247H83.8847V25.8874H86.4422V26.3663ZM92.7648 26.3663H92.1906L91.2908 24.5085H89.7286V26.3663H89.2293V21.4756H91.1175C91.2374 21.4756 91.352 21.4847 91.4605 21.5028C91.7095 21.5413 91.9238 21.6296 92.1023 21.7677C92.2837 21.9058 92.4206 22.0813 92.5133 22.2941C92.606 22.5047 92.6526 22.7379 92.6526 22.9938C92.6526 23.3198 92.5781 23.6062 92.4287 23.853C92.2813 24.0998 92.072 24.2775 91.8002 24.3862L92.7648 26.3663ZM89.7286 24.033H91.1038C91.2171 24.033 91.318 24.0228 91.4063 24.0024C91.567 23.9685 91.7018 23.9017 91.8104 23.8021C91.9213 23.7024 92.0039 23.5824 92.0582 23.4421C92.1129 23.2994 92.14 23.15 92.14 22.9938C92.14 22.8375 92.1129 22.6892 92.0582 22.5489C92.0039 22.4062 91.9213 22.2851 91.8104 22.1854C91.7018 22.0836 91.567 22.0156 91.4063 21.9817C91.3155 21.9635 91.2147 21.9545 91.1038 21.9545H89.7286V24.033ZM97.1822 26.4681C96.8428 26.4681 96.5359 26.4115 96.2618 26.2983C95.988 26.1829 95.7617 26.0198 95.5827 25.8093C95.4061 25.5964 95.2907 25.3462 95.2361 25.0587L95.7459 24.9738C95.8001 25.1821 95.8953 25.3632 96.031 25.5172C96.169 25.6689 96.3379 25.7855 96.5371 25.867C96.7384 25.9485 96.9603 25.9893 97.2028 25.9893C97.4425 25.9893 97.658 25.9508 97.8479 25.8738C98.0406 25.7968 98.19 25.6881 98.2961 25.5477C98.4051 25.4051 98.4593 25.2398 98.4593 25.0519C98.4593 24.8277 98.3893 24.6568 98.2487 24.5391C98.1082 24.4191 97.9285 24.3262 97.7086 24.2606L96.4691 23.8904C95.7738 23.6843 95.4264 23.2938 95.4264 22.7187C95.4264 22.4492 95.4977 22.2137 95.6406 22.0123C95.7831 21.8085 95.9799 21.6522 96.2314 21.5435C96.4828 21.4326 96.7679 21.3771 97.0874 21.3771C97.4109 21.3771 97.7029 21.4349 97.9633 21.5503C98.2261 21.6636 98.4411 21.8277 98.6087 22.0428C98.7784 22.2579 98.8893 22.5115 98.9416 22.8036L98.4184 22.8986C98.3868 22.6903 98.3087 22.507 98.1844 22.3485C98.0596 22.19 97.9021 22.0677 97.7122 21.9817C97.5219 21.8956 97.3126 21.8526 97.0838 21.8526C96.8712 21.8526 96.6784 21.89 96.5063 21.9647C96.3342 22.0372 96.1986 22.1379 96.099 22.267C96.0014 22.396 95.9528 22.5398 95.9528 22.6983C95.9528 22.8522 95.9957 22.9802 96.082 23.0821C96.1678 23.1817 96.2711 23.2598 96.3909 23.3164C96.5132 23.3707 96.657 23.4217 96.8222 23.4692L97.7803 23.7511C97.9795 23.8077 98.1617 23.8768 98.3269 23.9583C98.4921 24.0398 98.6403 24.1689 98.7719 24.3455C98.9031 24.5198 98.9687 24.7485 98.9687 25.0315C98.9687 25.3281 98.8918 25.5851 98.7379 25.8025C98.584 26.0176 98.371 26.1829 98.0993 26.2983C97.8301 26.4115 97.5243 26.4681 97.1822 26.4681ZM102.207 26.3663H101.708V21.4756H102.207V26.3663ZM106.995 26.3663H106.496V21.9545H104.787V21.4756H108.703V21.9545H106.995V26.3663ZM113.091 26.3663H112.588V24.3183L110.948 21.4756H111.525L112.84 23.7477L114.147 21.4756H114.725L113.091 24.3183V26.3663Z" fill="#09314F"/>
</g>
</svg>
