<svg width="115" height="30" viewBox="0 0 115 30" fill="none" xmlns="http://www.w3.org/2000/svg">
<g id="Group 11291 1" clip-path="url(#clip0_6566_1284)">
<path id="Vector" d="M55.7196 18.5627H56.1314V18.8209H48.4333V18.5934H48.8204C49.1096 18.5811 49.374 18.452 49.5647 18.2368C49.7611 18.04 49.8534 17.7695 49.8226 17.4928L48.8204 8.17736L43.9937 16.4967C43.3604 17.5543 43.0344 18.5073 43.0162 19.3435H42.7578L36.1602 8.25729L35.158 17.4989C35.1272 17.7756 35.2194 18.0584 35.4162 18.2552C35.6007 18.4766 35.8712 18.6057 36.1602 18.5996H36.5414V18.827H31.1797V18.5688H31.5917C32.0467 18.5749 32.4894 18.4212 32.8337 18.1322C33.1903 17.8371 33.4117 17.4128 33.4609 16.9517L35.5884 0.497559H35.8158L43.7722 13.5883L51.4213 0.497559H51.6489L53.8319 16.9517C53.8995 17.4128 54.1331 17.831 54.4834 18.1322C54.828 18.4212 55.2584 18.5749 55.7071 18.5688L55.7196 18.5627Z" fill="white"/>
<path id="Vector_2" d="M61.8838 18.563C62.3142 18.563 62.7261 18.397 63.0273 18.0896C63.3347 17.7883 63.5193 17.3763 63.5254 16.9459V2.69917C63.5132 2.26876 63.3347 1.86294 63.0273 1.5678C62.7261 1.26651 62.3142 1.10049 61.8838 1.10664H61.5518V0.848389H69.3543L69.3296 1.10664H69.0223C68.5919 1.10664 68.174 1.26651 67.8662 1.5678C67.5528 1.85679 67.3746 2.26876 67.3807 2.69917V16.9459C67.3746 17.3763 67.5528 17.7944 67.8662 18.0896C68.174 18.397 68.5858 18.5692 69.0223 18.563H69.3296L69.3543 18.8213H61.5518V18.563H61.8838Z" fill="white"/>
<path id="Vector_3" d="M89.7765 0.940186H95.2674V1.19843H95.0398C94.6215 1.20458 94.2097 1.33371 93.8594 1.55506C93.4411 1.81946 93.103 2.19454 92.8815 2.6311L86.8003 16.0539C86.0135 17.7448 85.5952 18.87 85.5401 19.4173H85.3126L77.5343 2.65569C77.3128 2.21298 76.9747 1.83791 76.5568 1.56736C76.2 1.32756 75.7818 1.19843 75.3513 1.19843H75.1484V0.940186H83.3078V1.19843H83.1049C82.7854 1.17384 82.4781 1.30297 82.2687 1.54277C82.1088 1.72723 82.0104 1.95473 81.9982 2.19454C81.9982 2.40359 82.0351 2.61265 82.1027 2.80941L86.4682 13.4099L90.9877 2.80941C91.0678 2.61265 91.1108 2.39745 91.1168 2.18224C91.0986 1.94244 91.0063 1.72108 90.8463 1.54277C90.6374 1.29682 90.3297 1.16769 90.0102 1.19843H89.7826V0.940186H89.7765Z" fill="white"/>
<path id="Vector_4" d="M114.625 18.5628H114.853V18.8211H106.669V18.5628H106.896C107.216 18.5875 107.523 18.4583 107.732 18.2185C107.892 18.034 107.99 17.8066 108.003 17.5606C108.003 17.3515 107.96 17.1364 107.874 16.9457L106.619 13.7914H100.612L99.2776 16.9519C99.1978 17.1548 99.1549 17.3638 99.1488 17.5791C99.167 17.8189 99.2654 18.0464 99.4314 18.2185C99.6469 18.4583 99.9603 18.5875 100.28 18.5628H100.483V18.8211H94.9922V18.5628H95.2193C95.6376 18.5567 96.0495 18.4276 96.4001 18.2001C96.8184 17.9357 97.1565 17.5606 97.3776 17.124L103.305 3.70127C104.111 2.01036 104.535 0.885133 104.59 0.337891H104.818L112.442 17.0748C112.664 17.5299 112.996 17.9111 113.42 18.1939C113.776 18.4337 114.195 18.5628 114.625 18.569V18.5628ZM101.049 12.7092H106.183L103.693 6.39442L101.049 12.7092Z" fill="white"/>
<path id="Vector_5" d="M0 2.52466V27.5876L6.4528 14.3761L0 2.52466Z" fill="white"/>
<path id="Vector_6" d="M0.368164 1.50366L14.1708 24.57V14.8557L0.368164 1.50366Z" fill="#E83831"/>
<path id="Vector_7" d="M0.87207 0.337891L14.1703 12.8177V7.62156L0.87207 0.337891Z" fill="#BB9E7F"/>
<path id="Vector_8" d="M28.2126 2.52466V27.5876L21.7598 14.3761L28.2126 2.52466Z" fill="white"/>
<path id="Vector_9" d="M27.8488 1.50366L14.042 24.57V14.8557L27.8488 1.50366Z" fill="#E83831"/>
<path id="Vector_10" d="M27.3444 0.337891L14.042 12.8177V7.62156L27.3444 0.337891Z" fill="#BB9E7F"/>
<path id="Vector_11" d="M33.6345 26.8061C33.1568 26.8061 32.7492 26.6997 32.4119 26.4868C32.0746 26.274 31.8187 25.9763 31.6444 25.5936C31.47 25.2087 31.3828 24.7638 31.3828 24.2589C31.3828 23.754 31.47 23.3102 31.6444 22.9276C31.8187 22.5426 32.0746 22.2438 32.4119 22.031C32.7492 21.8181 33.1568 21.7117 33.6345 21.7117C34.1123 21.7117 34.5198 21.8181 34.8572 22.031C35.1968 22.2438 35.4538 22.5426 35.6282 22.9276C35.8025 23.3102 35.8897 23.754 35.8897 24.2589C35.8897 24.7638 35.8025 25.2087 35.6282 25.5936C35.4538 25.9763 35.1968 26.274 34.8572 26.4868C34.5198 26.6997 34.1123 26.8061 33.6345 26.8061ZM33.6414 26.3272C34.0149 26.3272 34.3296 26.2412 34.5855 26.0691C34.8436 25.8948 35.0372 25.6525 35.1663 25.3423C35.2953 25.0321 35.3599 24.671 35.3599 24.2589C35.3599 23.8446 35.2942 23.4823 35.1629 23.1721C35.0316 22.8596 34.8357 22.6185 34.5753 22.4487C34.3172 22.2766 34.0014 22.1906 33.6277 22.1906C33.2519 22.1906 32.9349 22.2789 32.6768 22.4555C32.421 22.6298 32.2296 22.8743 32.1028 23.1891C31.976 23.5038 31.9127 23.8706 31.9127 24.2895C31.9127 24.6993 31.9783 25.057 32.1096 25.3627C32.2409 25.6684 32.4357 25.9061 32.6938 26.0759C32.9542 26.2434 33.27 26.3272 33.6414 26.3272ZM38.5397 26.7042V21.8136H40.428C40.5479 21.8136 40.6625 21.8226 40.771 21.8408C41.0201 21.8792 41.2339 21.9675 41.4128 22.1057C41.5938 22.2438 41.7311 22.4192 41.8238 22.6321C41.9166 22.8426 41.9631 23.0758 41.9631 23.3317C41.9631 23.5875 41.9154 23.8208 41.8206 24.0313C41.7275 24.2419 41.5918 24.4162 41.4128 24.5544C41.2339 24.6925 41.0201 24.7808 40.771 24.8193C40.6625 24.8374 40.5479 24.8464 40.428 24.8464H39.0389V26.7042H38.5397ZM40.4144 24.371C40.5277 24.371 40.6285 24.3608 40.7168 24.3404C40.8775 24.3064 41.012 24.2396 41.1209 24.14C41.2318 24.0404 41.3144 23.9204 41.3687 23.78C41.423 23.6374 41.4501 23.4879 41.4501 23.3317C41.4501 23.1755 41.423 23.0272 41.3687 22.8868C41.3144 22.7442 41.2318 22.623 41.1209 22.5234C41.012 22.4215 40.8775 22.3536 40.7168 22.3196C40.6261 22.3015 40.5252 22.2925 40.4144 22.2925H39.0389V24.371H40.4144ZM47.6654 26.7042H44.6089V21.8136H47.6654V22.2925H45.1082V23.9838H47.258V24.4627H45.1082V26.2253H47.6654V26.7042ZM50.9554 26.7042H50.4525V21.8136H50.9554L53.6486 25.8212V21.8136H54.1511V26.7042H53.6486L50.9554 22.6932V26.7042ZM62.3108 26.8061C61.9395 26.8061 61.6087 26.7291 61.3192 26.5752C61.0317 26.4212 60.8061 26.2027 60.6434 25.9197C60.4826 25.6367 60.402 25.3095 60.402 24.9381V21.817L60.9045 21.8136V24.8736C60.9045 25.1928 60.975 25.4634 61.1151 25.6853C61.2556 25.905 61.4334 26.068 61.6484 26.1744C61.8658 26.2808 62.0865 26.334 62.3108 26.334C62.5372 26.334 62.7579 26.2808 62.9729 26.1744C63.1883 26.0657 63.3657 25.9016 63.5062 25.6819C63.6467 25.4623 63.7168 25.1928 63.7168 24.8736V21.8136H64.2193V24.9381C64.2193 25.3072 64.1379 25.6333 63.9751 25.9163C63.8144 26.1993 63.5888 26.4189 63.2993 26.5752C63.0093 26.7291 62.6797 26.8061 62.3108 26.8061ZM67.6438 26.7042H67.1413V21.8136H67.6438L70.3374 25.8212V21.8136H70.8399V26.7042H70.3374L67.6438 22.6932V26.7042ZM74.3283 26.7042H73.8291V21.8136H74.3283V26.7042ZM79.2215 26.7042H78.5595L76.8749 21.8136H77.3945L78.8854 26.137L80.3865 21.8136H80.906L79.2215 26.7042ZM86.4422 26.7042H83.3854V21.8136H86.4422V22.2925H83.8847V23.9838H86.0345V24.4627H83.8847V26.2253H86.4422V26.7042ZM92.7648 26.7042H92.1906L91.2908 24.8464H89.7286V26.7042H89.2293V21.8136H91.1175C91.2374 21.8136 91.352 21.8226 91.4605 21.8408C91.7095 21.8792 91.9238 21.9675 92.1023 22.1057C92.2837 22.2438 92.4206 22.4192 92.5133 22.6321C92.606 22.8426 92.6526 23.0758 92.6526 23.3317C92.6526 23.6578 92.5781 23.9442 92.4287 24.191C92.2813 24.4378 92.072 24.6155 91.8002 24.7242L92.7648 26.7042ZM89.7286 24.371H91.1038C91.2171 24.371 91.318 24.3608 91.4063 24.3404C91.567 24.3064 91.7018 24.2396 91.8104 24.14C91.9213 24.0404 92.0039 23.9204 92.0582 23.78C92.1129 23.6374 92.14 23.4879 92.14 23.3317C92.14 23.1755 92.1129 23.0272 92.0582 22.8868C92.0039 22.7442 91.9213 22.623 91.8104 22.5234C91.7018 22.4215 91.567 22.3536 91.4063 22.3196C91.3155 22.3015 91.2147 22.2925 91.1038 22.2925H89.7286V24.371ZM97.1822 26.8061C96.8428 26.8061 96.5359 26.7495 96.2618 26.6363C95.988 26.5208 95.7617 26.3578 95.5827 26.1472C95.4061 25.9344 95.2907 25.6842 95.2361 25.3967L95.7459 25.3117C95.8001 25.52 95.8953 25.7012 96.031 25.8552C96.169 26.0068 96.3379 26.1235 96.5371 26.2049C96.7384 26.2864 96.9603 26.3272 97.2028 26.3272C97.4425 26.3272 97.658 26.2887 97.8479 26.2117C98.0406 26.1348 98.19 26.0261 98.2961 25.8857C98.4051 25.7431 98.4593 25.5778 98.4593 25.3898C98.4593 25.1657 98.3893 24.9948 98.2487 24.877C98.1082 24.757 97.9285 24.6642 97.7086 24.5985L96.4691 24.2283C95.7738 24.0223 95.4264 23.6317 95.4264 23.0566C95.4264 22.7872 95.4977 22.5517 95.6406 22.3502C95.7831 22.1464 95.9799 21.9902 96.2314 21.8815C96.4828 21.7705 96.7679 21.7151 97.0874 21.7151C97.4109 21.7151 97.7029 21.7728 97.9633 21.8883C98.2261 22.0015 98.4411 22.1656 98.6087 22.3807C98.7784 22.5958 98.8893 22.8494 98.9416 23.1415L98.4184 23.2366C98.3868 23.0283 98.3087 22.8449 98.1844 22.6864C98.0596 22.5279 97.9021 22.4056 97.7122 22.3196C97.5219 22.2336 97.3126 22.1906 97.0838 22.1906C96.8712 22.1906 96.6784 22.2279 96.5063 22.3026C96.3342 22.3751 96.1986 22.4759 96.099 22.6049C96.0014 22.734 95.9528 22.8777 95.9528 23.0362C95.9528 23.1902 95.9957 23.3181 96.082 23.42C96.1678 23.5196 96.2711 23.5978 96.3909 23.6544C96.5132 23.7087 96.657 23.7596 96.8222 23.8072L97.7803 24.0891C97.9795 24.1457 98.1617 24.2147 98.3269 24.2963C98.4921 24.3778 98.6403 24.5068 98.7719 24.6834C98.9031 24.8578 98.9687 25.0864 98.9687 25.3695C98.9687 25.6661 98.8918 25.9231 98.7379 26.1404C98.584 26.3555 98.371 26.5208 98.0993 26.6363C97.8301 26.7495 97.5243 26.8061 97.1822 26.8061ZM102.207 26.7042H101.708V21.8136H102.207V26.7042ZM106.995 26.7042H106.496V22.2925H104.787V21.8136H108.703V22.2925H106.995V26.7042ZM113.091 26.7042H112.588V24.6562L110.948 21.8136H111.525L112.84 24.0857L114.147 21.8136H114.725L113.091 24.6562V26.7042Z" fill="white"/>
</g>
<defs>
<clipPath id="clip0_6566_1284">
<rect width="115" height="28.75" fill="white" transform="translate(0 0.337891)"/>
</clipPath>
</defs>
</svg>
