<svg width="15" height="16" viewBox="0 0 15 16" fill="none" xmlns="http://www.w3.org/2000/svg">
<g id="logos:whatsapp-icon" clip-path="url(#clip0_6702_1681)">
<path id="Vector" d="M0.317696 7.91025C0.317347 9.17054 0.64665 10.4011 1.27281 11.4858L0.257812 15.1917L4.05037 14.1973C5.09934 14.7683 6.27464 15.0676 7.46898 15.0676H7.47212C11.4148 15.0676 14.6243 11.8593 14.626 7.91588C14.6268 6.00501 13.8833 4.20815 12.5325 2.85629C11.1819 1.50455 9.38566 0.759722 7.47183 0.75885C3.52863 0.75885 0.319382 3.96699 0.317754 7.91025" fill="url(#paint0_linear_6702_1681)"/>
<path id="Vector_2" d="M0.0622093 7.90791C0.0618023 9.21355 0.402907 10.4881 1.0514 11.6116L0 15.4504L3.92855 14.4203C5.01099 15.0105 6.22971 15.3217 7.46983 15.3222H7.47302C11.5572 15.3222 14.882 11.9984 14.8837 7.91384C14.8844 5.9343 14.1142 4.07285 12.7151 2.67256C11.3159 1.27244 9.45541 0.500814 7.47302 0.5C3.38814 0.5 0.0638372 3.82326 0.0622093 7.90791ZM2.40174 11.4181L2.25506 11.1853C1.63843 10.2048 1.31297 9.0718 1.31343 7.90837C1.31477 4.51331 4.07779 1.75116 7.47535 1.75116C9.1207 1.75186 10.667 2.39326 11.83 3.55698C12.993 4.72081 13.6329 6.26791 13.6325 7.91337C13.631 11.3084 10.8679 14.0709 7.47302 14.0709H7.47058C6.36518 14.0703 5.28105 13.7735 4.33558 13.2125L4.11058 13.0791L1.7793 13.6903L2.40174 11.4181V11.4181Z" fill="url(#paint1_linear_6702_1681)"/>
<path id="Vector_3" d="M5.6204 4.81094C5.48168 4.50263 5.33569 4.49641 5.20378 4.491C5.09575 4.48635 4.97226 4.4867 4.84889 4.4867C4.7254 4.4867 4.52476 4.53315 4.35517 4.71833C4.1854 4.90368 3.70703 5.35158 3.70703 6.26257C3.70703 7.17362 4.37058 8.05403 4.46308 8.17769C4.55569 8.30112 5.74407 10.2304 7.62616 10.9726C9.19035 11.5894 9.50866 11.4668 9.84814 11.4358C10.1877 11.405 10.9437 10.988 11.098 10.5557C11.2523 10.1233 11.2523 9.75275 11.206 9.6753C11.1598 9.59815 11.0363 9.55182 10.8511 9.45926C10.6659 9.36664 9.75552 8.91868 9.58581 8.85687C9.41604 8.79513 9.29261 8.76432 9.16912 8.94972C9.04564 9.13484 8.69104 9.55182 8.58296 9.6753C8.475 9.79908 8.36691 9.81449 8.1818 9.72187C7.99651 9.62897 7.40017 9.43368 6.69267 8.80292C6.14221 8.31211 5.77058 7.706 5.66255 7.5206C5.55453 7.33548 5.65099 7.23513 5.74383 7.14286C5.82703 7.0599 5.92907 6.92664 6.02174 6.81856C6.11407 6.71042 6.14488 6.63327 6.20662 6.50978C6.26843 6.38618 6.2375 6.27804 6.19128 6.18542C6.14488 6.09281 5.78505 5.17705 5.6204 4.81094Z" fill="white"/>
</g>
<defs>
<linearGradient id="paint0_linear_6702_1681" x1="718.668" y1="1444.04" x2="718.668" y2="0.75885" gradientUnits="userSpaceOnUse">
<stop stop-color="#1FAF38"/>
<stop offset="1" stop-color="#60D669"/>
</linearGradient>
<linearGradient id="paint1_linear_6702_1681" x1="744.186" y1="1495.54" x2="744.186" y2="0.5" gradientUnits="userSpaceOnUse">
<stop stop-color="#F9F9F9"/>
<stop offset="1" stop-color="white"/>
</linearGradient>
<clipPath id="clip0_6702_1681">
<rect width="14.8837" height="15" fill="white" transform="translate(0 0.5)"/>
</clipPath>
</defs>
</svg>
