<svg width="14" height="15" viewBox="0 0 14 15" fill="none" xmlns="http://www.w3.org/2000/svg">
<g id="material-symbols:mail-outline">
<path id="Vector" d="M2.33366 12.5045C2.01283 12.5045 1.73808 12.3901 1.50941 12.1615C1.28074 11.9328 1.1666 11.6583 1.16699 11.3378V4.33781C1.16699 4.01698 1.28133 3.74223 1.50999 3.51356C1.73866 3.28489 2.01322 3.17075 2.33366 3.17114H11.667C11.9878 3.17114 12.2626 3.28548 12.4912 3.51414C12.7199 3.74281 12.834 4.01737 12.8337 4.33781V11.3378C12.8337 11.6586 12.7193 11.9334 12.4907 12.1621C12.262 12.3907 11.9874 12.5049 11.667 12.5045H2.33366ZM7.00033 8.42114L2.33366 5.50448V11.3378H11.667V5.50448L7.00033 8.42114ZM7.00033 7.25448L11.667 4.33781H2.33366L7.00033 7.25448ZM2.33366 5.50448V4.33781V11.3378V5.50448Z" fill="white"/>
</g>
</svg>
