<svg width="18" height="18" viewBox="0 0 18 18" fill="none" xmlns="http://www.w3.org/2000/svg">
<g id="mdi:stopwatch-outline">
<path id="Vector" d="M9 15C7.60761 15 6.27226 14.4469 5.28769 13.4623C4.30312 12.4777 3.75 11.1424 3.75 9.75C3.75 8.35761 4.30312 7.02226 5.28769 6.03769C6.27226 5.05312 7.60761 4.5 9 4.5C10.3924 4.5 11.7277 5.05312 12.7123 6.03769C13.6969 7.02226 14.25 8.35761 14.25 9.75C14.25 11.1424 13.6969 12.4777 12.7123 13.4623C11.7277 14.4469 10.3924 15 9 15ZM14.2725 5.5425L15.3375 4.4775C15 4.095 14.6625 3.75 14.28 3.42L13.215 4.5C12.0525 3.555 10.59 3 9 3C7.20979 3 5.4929 3.71116 4.22703 4.97703C2.96116 6.2429 2.25 7.95979 2.25 9.75C2.25 11.5402 2.96116 13.2571 4.22703 14.523C5.4929 15.7888 7.20979 16.5 9 16.5C12.75 16.5 15.75 13.4775 15.75 9.75C15.75 8.16 15.195 6.6975 14.2725 5.5425ZM8.25 10.5H9.75V6H8.25M11.25 0.75H6.75V2.25H11.25V0.75Z" fill="#B3BFC9"/>
</g>
</svg>
