<svg width="14" height="15" viewBox="0 0 14 15" fill="none" xmlns="http://www.w3.org/2000/svg">
<g id="carbon:phone-filled">
<path id="Vector" d="M8.89434 9.73541L9.87434 8.75541C10.0063 8.62505 10.1733 8.53582 10.3551 8.49854C10.5368 8.46126 10.7254 8.47754 10.8981 8.54541L12.0925 9.02228C12.2669 9.09311 12.4166 9.21399 12.5224 9.3697C12.6283 9.52542 12.6857 9.70899 12.6875 9.89728V12.0848C12.6865 12.2129 12.6595 12.3394 12.6083 12.4568C12.5571 12.5743 12.4826 12.6801 12.3895 12.768C12.2963 12.8558 12.1862 12.924 12.066 12.9682C11.9458 13.0124 11.8179 13.0319 11.69 13.0254C3.32059 12.5048 1.63184 5.41728 1.31247 2.70478C1.29764 2.57158 1.31119 2.43675 1.35221 2.30916C1.39324 2.18156 1.46082 2.06411 1.5505 1.96451C1.64018 1.86491 1.74993 1.78542 1.87254 1.73129C1.99514 1.67715 2.12782 1.64959 2.26184 1.65041H4.37497C4.56353 1.65097 4.74762 1.70793 4.90355 1.81396C5.05948 1.91999 5.18013 2.07025 5.24997 2.24541L5.72684 3.43978C5.79695 3.61175 5.81484 3.80056 5.77827 3.98264C5.7417 4.16471 5.65229 4.33198 5.52122 4.46353L4.54122 5.44353C4.54122 5.44353 5.10559 9.26291 8.89434 9.73541Z" fill="white"/>
</g>
</svg>
