<svg width="20" height="17" viewBox="0 0 20 17" fill="none" xmlns="http://www.w3.org/2000/svg">
<g id="003-twitter">
<path id="Path" d="M19.9999 2.21889C19.2727 2.53789 18.4978 2.74934 17.6899 2.852C18.521 2.35578 19.1553 1.576 19.4536 0.636113C18.6787 1.09811 17.8231 1.42445 16.9113 1.60656C16.1756 0.823113 15.1269 0.337891 13.9829 0.337891C11.7633 0.337891 9.97645 2.13945 9.97645 4.348C9.97645 4.66578 10.0033 4.97133 10.0693 5.26222C6.73634 5.09967 3.78711 3.50222 1.80589 1.06878C1.46 1.66889 1.25711 2.35578 1.25711 3.09522C1.25711 4.48367 1.97211 5.71445 3.03789 6.427C2.39378 6.41478 1.76189 6.22778 1.22656 5.93322C1.22656 5.94545 1.22656 5.96134 1.22656 5.97722C1.22656 7.92545 2.61622 9.54367 4.43856 9.91645C4.11222 10.0057 3.75656 10.0484 3.38745 10.0484C3.13078 10.0484 2.87167 10.0338 2.62845 9.98C3.14789 11.5677 4.62189 12.7349 6.37456 12.7728C5.01056 13.8398 3.27867 14.4827 1.40378 14.4827C1.075 14.4827 0.759669 14.468 0.444336 14.4277C2.22022 15.5729 4.32489 16.2268 6.59456 16.2268C13.9719 16.2268 18.0052 10.1157 18.0052 4.81856C18.0052 4.64134 17.9991 4.47022 17.9906 4.30034C18.7862 3.73567 19.4548 3.03045 19.9999 2.21889Z" fill="white"/>
</g>
</svg>
