<svg width="16" height="17" viewBox="0 0 16 17" fill="none" xmlns="http://www.w3.org/2000/svg">
<g id="tiktok (1) 1" clip-path="url(#clip0_6702_1383)">
<path id="Vector" fill-rule="evenodd" clip-rule="evenodd" d="M11.0611 0.351328C11.062 0.595391 11.1333 4.12258 14.8348 4.34258C14.8348 5.35977 14.8361 6.09727 14.8361 7.06789C14.5558 7.08414 12.3992 6.92758 11.057 5.73039L11.053 11.036C11.1039 14.7185 8.39391 16.9595 4.85172 16.1854C-1.2564 14.3582 0.773284 5.29883 6.90641 6.26852C6.90641 9.1932 6.90797 6.26758 6.90797 9.1932C4.37422 8.82039 3.52672 10.9282 4.20016 12.4373C4.81266 13.8113 7.33547 14.1091 8.21547 12.1707C8.31516 11.7913 8.36485 11.3588 8.36485 10.8732V0.337891L11.0611 0.351328Z" fill="white"/>
</g>
<defs>
<clipPath id="clip0_6702_1383">
<rect width="16" height="16" fill="white" transform="translate(0 0.337891)"/>
</clipPath>
</defs>
</svg>
