<svg width="16" height="16" viewBox="0 0 16 16" fill="none" xmlns="http://www.w3.org/2000/svg">
<g id="uil:money-stack" clip-path="url(#clip0_6223_21036)">
<path id="Vector" d="M14.667 11.3333H1.33366C1.15685 11.3333 0.987279 11.4035 0.862254 11.5286C0.73723 11.6536 0.666992 11.8232 0.666992 12C0.666992 12.1768 0.73723 12.3463 0.862254 12.4714C0.987279 12.5964 1.15685 12.6666 1.33366 12.6666H14.667C14.8438 12.6666 15.0134 12.5964 15.1384 12.4714C15.2634 12.3463 15.3337 12.1768 15.3337 12C15.3337 11.8232 15.2634 11.6536 15.1384 11.5286C15.0134 11.4035 14.8438 11.3333 14.667 11.3333ZM14.667 14H1.33366C1.15685 14 0.987279 14.0702 0.862254 14.1952C0.73723 14.3202 0.666992 14.4898 0.666992 14.6666C0.666992 14.8434 0.73723 15.013 0.862254 15.138C0.987279 15.2631 1.15685 15.3333 1.33366 15.3333H14.667C14.8438 15.3333 15.0134 15.2631 15.1384 15.138C15.2634 15.013 15.3337 14.8434 15.3337 14.6666C15.3337 14.4898 15.2634 14.3202 15.1384 14.1952C15.0134 14.0702 14.8438 14 14.667 14ZM4.00033 4.66663C3.86847 4.66663 3.73958 4.70573 3.62995 4.77898C3.52031 4.85223 3.43486 4.95635 3.38441 5.07817C3.33395 5.19999 3.32075 5.33403 3.34647 5.46335C3.37219 5.59267 3.43569 5.71146 3.52892 5.8047C3.62216 5.89793 3.74095 5.96143 3.87027 5.98715C3.99959 6.01287 4.13363 5.99967 4.25545 5.94921C4.37727 5.89876 4.48138 5.81331 4.55464 5.70367C4.62789 5.59404 4.66699 5.46515 4.66699 5.33329C4.66699 5.15648 4.59676 4.98691 4.47173 4.86189C4.34671 4.73687 4.17714 4.66663 4.00033 4.66663ZM13.3337 0.666626H2.66699C2.13656 0.666626 1.62785 0.87734 1.25278 1.25241C0.877706 1.62749 0.666992 2.13619 0.666992 2.66663V7.99996C0.666992 8.53039 0.877706 9.0391 1.25278 9.41418C1.62785 9.78925 2.13656 9.99996 2.66699 9.99996H13.3337C13.8641 9.99996 14.3728 9.78925 14.7479 9.41418C15.1229 9.0391 15.3337 8.53039 15.3337 7.99996V2.66663C15.3337 2.13619 15.1229 1.62749 14.7479 1.25241C14.3728 0.87734 13.8641 0.666626 13.3337 0.666626ZM14.0003 7.99996C14.0003 8.17677 13.9301 8.34634 13.8051 8.47137C13.68 8.59639 13.5105 8.66663 13.3337 8.66663H2.66699C2.49018 8.66663 2.32061 8.59639 2.19559 8.47137C2.07056 8.34634 2.00033 8.17677 2.00033 7.99996V2.66663C2.00033 2.48982 2.07056 2.32025 2.19559 2.19522C2.32061 2.0702 2.49018 1.99996 2.66699 1.99996H13.3337C13.5105 1.99996 13.68 2.0702 13.8051 2.19522C13.9301 2.32025 14.0003 2.48982 14.0003 2.66663V7.99996ZM8.00033 3.33329C7.60476 3.33329 7.21808 3.45059 6.88919 3.67035C6.56029 3.89012 6.30394 4.20247 6.15257 4.56793C6.00119 4.93338 5.96159 5.33551 6.03876 5.72347C6.11593 6.11144 6.30641 6.4678 6.58611 6.74751C6.86582 7.02721 7.22218 7.21769 7.61015 7.29486C7.99811 7.37204 8.40024 7.33243 8.76569 7.18105C9.13115 7.02968 9.4435 6.77333 9.66327 6.44443C9.88303 6.11554 10.0003 5.72886 10.0003 5.33329C10.0003 4.80286 9.78961 4.29415 9.41454 3.91908C9.03947 3.54401 8.53076 3.33329 8.00033 3.33329ZM8.00033 5.99996C7.86847 5.99996 7.73958 5.96086 7.62995 5.88761C7.52031 5.81435 7.43487 5.71023 7.38441 5.58842C7.33395 5.4666 7.32075 5.33255 7.34647 5.20323C7.37219 5.07391 7.43569 4.95512 7.52892 4.86189C7.62216 4.76865 7.74095 4.70516 7.87027 4.67944C7.99959 4.65371 8.13363 4.66692 8.25545 4.71737C8.37727 4.76783 8.48139 4.85328 8.55464 4.96291C8.62789 5.07255 8.66699 5.20144 8.66699 5.33329C8.66699 5.5101 8.59676 5.67967 8.47173 5.8047C8.34671 5.92972 8.17714 5.99996 8.00033 5.99996ZM12.0003 4.66663C11.8685 4.66663 11.7396 4.70573 11.6299 4.77898C11.5203 4.85223 11.4349 4.95635 11.3844 5.07817C11.334 5.19999 11.3207 5.33403 11.3465 5.46335C11.3722 5.59267 11.4357 5.71146 11.5289 5.8047C11.6222 5.89793 11.7409 5.96143 11.8703 5.98715C11.9996 6.01287 12.1336 5.99967 12.2555 5.94921C12.3773 5.89876 12.4814 5.81331 12.5546 5.70367C12.6279 5.59404 12.667 5.46515 12.667 5.33329C12.667 5.15648 12.5968 4.98691 12.4717 4.86189C12.3467 4.73687 12.1771 4.66663 12.0003 4.66663Z" fill="#B3BFC9"/>
</g>
<defs>
<clipPath id="clip0_6223_21036">
<rect width="16" height="16" fill="white"/>
</clipPath>
</defs>
</svg>
