<svg width="16" height="17" viewBox="0 0 16 17" fill="none" xmlns="http://www.w3.org/2000/svg">
<g id="youtube 1">
<path id="Vector" d="M15.3327 6.8117C15.3657 5.85747 15.157 4.91038 14.726 4.05837C14.4336 3.70877 14.0278 3.47284 13.5794 3.3917C11.7244 3.22339 9.86172 3.1544 7.99937 3.18503C6.1438 3.15301 4.28784 3.21977 2.43937 3.38504C2.07391 3.45151 1.73571 3.62293 1.46603 3.87837C0.866034 4.4317 0.799367 5.37837 0.7327 6.17837C0.635975 7.61674 0.635975 9.05999 0.7327 10.4984C0.751987 10.9486 0.819029 11.3956 0.9327 11.8317C1.01308 12.1684 1.17572 12.4799 1.40603 12.7384C1.67755 13.0073 2.02362 13.1885 2.39937 13.2584C3.83664 13.4358 5.28484 13.5093 6.7327 13.4784C9.06603 13.5117 11.1127 13.4784 13.5327 13.2917C13.9177 13.2261 14.2735 13.0447 14.5527 12.7717C14.7393 12.585 14.8788 12.3564 14.9594 12.105C15.1978 11.3734 15.3149 10.6078 15.306 9.83837C15.3327 9.46503 15.3327 7.2117 15.3327 6.8117ZM6.4927 10.2384V6.1117L10.4394 8.18504C9.3327 8.79837 7.8727 9.4917 6.4927 10.2384Z" fill="white"/>
</g>
</svg>
